# xmcd
#
# Track frame offsets:
#	150
#	14486
#	29720
#	42826
#	55493
#	69509
#	83838
#	96698
#	111189
#	124819
#	139592
#	153425
#	168869
#	181864
#	195160
#	209292
#	222900
#	233656
#	247334
#	262018
#	275982
#	290276
#	303521
#	316461
#
# Disc length: 4384 seconds
#
# Revision: 1
# Processed by: cddbd v1.5.2PL0 Copyright (c) Steve Scherf et al.
# Submitted via: audiograbber 1.83.01
#
DISCID=6d111e18
DTITLE=Various Artist - Record No. 49 and 50
DYEAR=1900
DGENRE=Country
TTITLE0=A. C. (Eck) Robertson - Sallie Goodin'
TTITLE1=Vernon Dalhart - The Prisoners's Song
TTITLE2=Charlie Poole And The North Carolina Ramblers - Don't Let Your Deal Go 
TTITLE2=Down Blues
TTITLE3=Fiddlin' John Carson - Little Old Log Cabin In The Lain
TTITLE4=Moonshine Kate - Little Mary Phagan
TTITLE5=Frank Blevins And His Tarheel Rattlers - Sally Aim
TTITLE6=Uncle Dave Macon - I'll Keep My Skillet Good And Greasy
TTITLE7=Henry Whitter - The Wreck Of The Southern Old '97
TTITLE8=Sam And Kirk Mcgee - C-H-I-C-K-E-N
TTITLE9=Samantha Bumgarner - Fly Around My Pretty Little Miss
TTITLE10=Delmore Brothers - Blue Railroad Train
TTITLE11=Carolina Tarheels - Rude And Rambling Man
TTITLE12=J. E. Mainer's Mountaineers - Run Mountain
TTITLE13=Patsy Montana - Montana Plains
TTITLE14=Ernest Thompson - Little Rosewood Casket
TTITLE15=Gid Tanner And His Skillet Lickers - Old Joe Clark
TTITLE16=Charlie Monroe And His Kentucky Pardners - Down In The Willow Garden
TTITLE17=Otto Gray's Oklahoma Cowboy Band - Who Broke The Lock On The Henhouse 
TTITLE17=Door?
TTITLE18=Richard Burnett And Leonard Rutherford - Willie Moore
TTITLE19=Cliff Carlilse - Black Jack David
TTITLE20=Ernest "Pop" Stoneman - The Titanic
TTITLE21=Coon Creek Girls - Sowin' On The Mountain
TTITLE22=Milton Brow And His Musical Brownies - Little Betty Brown
TTITLE23=East Texas Serenaders - Three-In-One Two-Step
EXTD=
EXTT0=
EXTT1=
EXTT2=
EXTT3=
EXTT4=
EXTT5=
EXTT6=
EXTT7=
EXTT8=
EXTT9=
EXTT10=
EXTT11=
EXTT12=
EXTT13=
EXTT14=
EXTT15=
EXTT16=
EXTT17=
EXTT18=
EXTT19=
EXTT20=
EXTT21=
EXTT22=
EXTT23=
PLAYORDER=
